<!-- Generated by IcoMoon.io -->
<svg version="1.1" xmlns="http://www.w3.org/2000/svg" width="1024" height="1024" viewBox="0 0 1024 1024">
<title></title>
<g id="icomoon-ignore">
</g>
<path fill="#3686be" d="M98.347 813.44c9.643 0.427 19.371 1.707 28.459 5.12v-0.128l1.365 0.512 119.893-116.907 4.352 5.845c6.229 8.533 12.8 16.213 19.797 23.893l2.56 2.901c1.835 1.835 3.285 3.669 5.12 5.547l13.909 13.867 3.285 2.987 2.987 2.56c55.68 47.232 125.312 73.984 198.613 75.819 60.459 1.451 119.467-13.909 171.093-44.373l9.216 9.557c10.667 11.349 21.632 22.741 32.256 34.133-63.787 40.96-137.813 61.525-214.059 59.733-85.76-2.261-167.509-33.024-233.088-88.021l0.427-0.683-76.928 75.819c2.859 8.96 3.968 18.347 4.096 27.733 0 52.992-42.923 95.915-95.872 95.915s-95.829-43.051-95.829-96.043c0-52.907 42.88-95.829 95.829-95.829zM831.147 319.019c37.76 61.952 56.448 133.419 54.613 205.995-2.133 88.747-35.541 173.355-94.208 239.701l0.427 0.427 47.232 50.176c19.029-2.56 38.059 4.011 51.285 17.92 22.357 23.808 21.632 61.227-2.219 83.925-23.808 22.357-61.227 21.632-83.925-2.219-13.227-13.909-18.688-33.365-15.019-52.053-21.931-23.467-60.8-64.853-83.2-88.32l-4.693-5.12 5.461-4.395c14.293-11.349 27.477-23.808 39.595-37.76 50.219-56.448 78.421-128.256 80.213-203.776 1.493-57.173-12.075-113.195-39.552-162.688zM163.328 94.976c16.853-0.256 32.64 6.4 44.373 18.432 13.227 13.909 18.773 33.365 15.061 52.053l90.837 95.232-5.461 4.437c-14.293 11.349-27.477 23.808-39.595 37.76-50.219 56.405-78.421 128.213-80.64 203.733-1.451 57.173 12.075 113.237 39.595 163.072l-43.605 42.496c-38.101-62.293-57.173-133.76-54.955-207.061 1.877-88.235 36.267-173.483 94.037-239.872l-50.048-52.181c-19.072 2.56-38.101-4.053-51.328-17.92-22.357-23.893-21.632-61.269 2.219-83.968 9.259-8.704 21.205-14.293 33.877-15.787 1.877-0.256 3.84-0.299 5.632-0.427zM928.128 18.859c52.907 0 95.872 42.923 95.872 95.915s-42.923 95.829-95.872 95.829c-10.24 0.128-20.224-1.707-29.867-4.779l-0.085 0.085-1.408-0.512-130.133 123.52-4.352-5.888c-6.955-9.173-14.677-18.347-22.741-26.752l-1.451-1.835-11.349-11.349-5.12-4.395-3.285-2.987-2.56-2.133-3.285-2.987c-55.339-46.507-124.587-72.96-197.12-74.752-60.501-1.408-119.467 13.653-170.837 44.373l-41.813-43.605c63.829-41.045 137.813-61.568 214.059-59.733 85.76 2.219 167.552 32.981 233.131 88.32h0.725l86.187-81.792c-2.987-9.216-4.267-18.901-4.395-28.587 0-52.992 42.923-95.915 95.701-95.957zM510.293 232.875c10.837 0 21.632 0.853 32.427 2.133 154.624 19.413 264.192 160.512 245.163 315.179-19.413 154.667-160.512 264.235-315.179 245.205-154.709-19.413-264.277-160.512-245.248-315.179 18.432-143.488 139.008-246.827 282.837-247.339zM506.027 354.048c-62.549 4.949-107.861 52.309-109.483 115.2 1.152 44.928 24.107 82.773 64.213 103.467l-21.845 102.4h146.048l-21.76-102.4c39.893-21.632 63.573-57.429 64.213-103.381-0.853-64.939-51.115-113.835-115.456-115.456zM508.245 353.365h-0.427z"></path>
</svg>
